<?xml version="1.0" encoding="UTF-8" standalone="no"?><!DOCTYPE svg PUBLIC "-//W3C//DTD SVG 1.1//EN" "http://www.w3.org/Graphics/SVG/1.1/DTD/svg11.dtd"><svg width="100%" height="100%" viewBox="0 0 1000 1000" version="1.1" xmlns="http://www.w3.org/2000/svg" xmlns:xlink="http://www.w3.org/1999/xlink" xml:space="preserve" xmlns:serif="http://www.serif.com/" style="fill-rule:evenodd;clip-rule:evenodd;stroke-linejoin:round;stroke-miterlimit:2;"><g><path d="M146.447,853.553c-195.131,-195.131 -195.131,-511.975 0,-707.107c195.131,-195.131 511.975,-195.131 707.107,0c195.131,195.131 195.131,511.975 0,707.107c-195.131,195.131 -511.975,195.131 -707.107,0Z" style="fill:#004aff;"/><path d="M839.266,265.756l-573.51,573.51c-21.77,-14.723 -42.085,-31.491 -60.669,-50.075c-161.188,-161.188 -161.188,-422.916 0,-584.105c161.188,-161.188 422.916,-161.188 584.105,0c18.584,18.584 35.351,38.899 50.075,60.669Z" style="fill:#fff;"/><path d="M906.759,444.218l-462.541,462.541c-41.975,-5.423 -82.867,-17.266 -121.245,-35.113l548.672,-548.673c17.847,38.377 29.69,79.269 35.113,121.245Z" style="fill:#fff;"/><path d="M532.183,908.674l376.492,-376.492c-8.267,97.081 -50.588,188.114 -119.483,257.009c-68.895,68.895 -159.928,111.216 -257.009,119.483Z" style="fill:#fff;"/></g></svg>